<svg enable-background="new 0 0 255.355 255.355" viewBox="0 0 255.355 255.355" xmlns="http://www.w3.org/2000/svg"><g fill="#fff"><path d="m213.46 25.231-22.976-22.974c-2.343-2.342-6.142-2.343-8.485.001-2.343 2.343-2.343 6.142 0 8.485l12.186 12.185h-57.498c-3.314 0-6 2.687-6 6s2.686 6 6 6h58.593l-12.69 12.691c-2.344 2.343-2.344 6.142.001 8.485 1.171 1.171 2.707 1.757 4.242 1.757s3.071-.586 4.243-1.758l22.386-22.387c2.342-2.342 2.342-6.141-.002-8.485z"/><path d="m192.578 96.229c-6.353-4.247-12.952-5.882-18.102-6.433-6.639-8.882-16.194-13.731-27.209-13.731-2.417 0-4.878.231-7.35.69-6.537-7.471-15.521-11.542-25.64-11.542-.187 0-.373.002-.561.005l-.044-36.846c-.01-8.464-3.266-16.01-9.166-21.249-5.171-4.594-12.003-7.123-19.238-7.123-7.751 0-15.191 2.998-20.414 8.226-5.239 5.247-8.004 12.236-7.994 20.215l.065 53.176.041 33.746c-7.589 4.058-12.836 10.48-15.268 18.75-3.747 12.739-.761 29.146 9.129 50.159 6.509 13.827 14.322 25.925 18.063 31.441l1.658 22.07c.741 9.854 9.062 17.572 18.942 17.572l78.648-.097c9.488-.012 17.575-7.115 18.81-16.523l3.055-23.263c18.568-29.113 25.378-59.282 20.237-89.681-2.798-16.546-11.149-25.209-17.662-29.562zm-13.251 113.66c-.565.874-.939 1.864-1.074 2.896l-3.203 24.39c-.456 3.479-3.419 5.867-6.928 5.871l-78.623-.117c-.003 0-.006 0-.009 0-3.659 0-6.701-2.607-6.976-6.258l-1.759-23.302c-.094-1.236-.509-2.364-1.212-3.386-7.197-10.457-47.38-71.446-14.839-85.049 2.59-1.083 4.269-3.607 4.265-6.414-.021-16.613-.086-71.742-.109-90.101-.014-10.947 8.197-16.423 16.408-16.423 8.195 0 16.391 5.462 16.404 16.389l.051 42.288c.005 3.916 3.193 6.986 6.973 6.986.362 0 .73-.027 1.101-.086 1.39-.219 2.899-.36 4.48-.36 5.906 0 12.797 1.978 18.077 9.293 1.311 1.816 3.411 2.811 5.589 2.811.611 0 1.23-.078 1.839-.239 2.07-.547 4.661-1.013 7.484-1.013 6.17 0 13.447 2.225 18.814 10.681 1.076 1.696 2.904 2.752 4.911 2.824 7.091.256 23.55 3.363 27.416 26.223 3.585 21.188 1.934 49.616-19.08 82.096z"/></g></svg>